
PLOT

A weekend of camping in the mountains becomes an excursion into hell for a young couple, who
become pawns in a grotesque plot hatched by deranged locals.
 
http://www.imdb.com/title/tt0857295/


Encoded By .......: BigPerm1828
Runtime ..........: 1h 40mn
File Size ........: 1.13 GiB
Resolution .......: 704x396
IMDb URL .........: http://www.imdb.com/title/tt0857295/
Language .........: English
Format : AVI
Format/Info : Audio Video Interleave
Format profile : OpenDML
File size : 1.13 GiB
Duration : 1h 40mn
Overall bit rate : 1 610 Kbps
Video
ID : 0
Format : MPEG-4 Visual
Format profile : Advanced Simple@L5
Format settings, BVOP : Yes
Format settings, QPel : No
Format settings, GMC : No warppoints
Format settings, Matrix : Default (H.263)
Codec ID : XVID
Codec ID/Hint : XviD
Duration : 1h 40mn
Bit rate : 42.4 Kbps
Width : 704 pixels
Height : 396 pixels
Display aspect ratio : 16:9
Frame rate : 29.970 fps
Color space : YUV
Chroma subsampling : 4:2:0
Bit depth : 8 bits
Scan type : Progressive
Compression mode : Lossy
Bits/(Pixel*Frame) : 0.005
Stream size : 30.5 MiB (3%)
Writing library : XviD 1.2.1 (UTC 2008-12-04)

Audio
ID : 1
Format : AC-3
Format/Info : Audio Coding 3
Codec ID : 2000
Duration : 1h 40mn
Bit rate mode : Constant
Bit rate : 448 Kbps
Channel(s) : 6 channels
Sampling rate : 48.0 KHz
Bit depth : 16 bits
Compression mode : Lossy
Stream size : 322 MiB (28%)
Alignment : Aligned on interleaves
 
http://leetleech.org/images/71449816558273625561.png
 
http://leetleech.org/images/89147784922579613331.png
 
http://leetleech.org/images/51594029293708083823.png
 
http://leetleech.org/images/34347843790298097939.png
 
http://leetleech.org/images/73428246965875944740.png